<svg width="45" height="36" viewBox="0 0 45 36" fill="none" xmlns="http://www.w3.org/2000/svg">
<g clip-path="url(#clip0_473_3257)">
<path d="M7.89692 15.297V18.1169H11.8002C11.7215 18.5664 11.553 18.9954 11.3047 19.3783C11.0564 19.7612 10.7334 20.0901 10.3551 20.3454C9.70298 20.7931 8.87036 21.0481 7.89419 21.0481C6.00747 21.0481 4.41265 19.7554 3.84048 18.0253C3.54103 17.115 3.54103 16.1328 3.84048 15.2225C4.41265 13.4821 6.00747 12.1894 7.89419 12.1894C8.4056 12.1799 8.9138 12.2722 9.38922 12.4609C9.86463 12.6496 10.2978 12.931 10.6634 13.2886L12.7333 11.1955C11.4297 9.95684 9.69509 9.27428 7.89692 9.29234C6.55176 9.2975 5.23483 9.6786 4.09479 10.3926C2.95475 11.1066 2.03701 12.1251 1.44517 13.3331C0.935368 14.3539 0.669983 15.4794 0.669983 16.6205C0.669983 17.7615 0.935368 18.887 1.44517 19.9079V19.9181C2.03717 21.1254 2.95516 22.1429 4.09532 22.8557C5.23548 23.5684 6.55232 23.948 7.89692 23.9513C9.84312 23.9513 11.4892 23.2999 12.6821 22.1801C14.0493 20.908 14.8292 19.0253 14.8292 16.7859C14.83 16.2872 14.79 15.7892 14.7096 15.297H7.89692ZM34.5167 15.0236C33.8243 14.3824 32.8809 14.057 31.6874 14.057C30.152 14.057 28.9981 14.6271 28.2352 15.7564L29.6605 16.6628C30.1823 15.8881 30.8946 15.5007 31.7974 15.5007C32.3722 15.5021 32.9262 15.7162 33.3526 16.1016C33.5604 16.2821 33.7271 16.505 33.8413 16.7553C33.9556 17.0057 34.0148 17.2777 34.015 17.5529V17.9295C33.3929 17.583 32.6102 17.3998 31.647 17.3998C30.5232 17.3998 29.6202 17.665 28.9475 18.2044C28.2749 18.7437 27.9344 19.456 27.9344 20.3618C27.9239 20.7666 28.004 21.1686 28.1689 21.5385C28.3338 21.9083 28.5792 22.2366 28.8874 22.4994C29.5197 23.0695 30.3229 23.3545 31.2656 23.3545C32.3791 23.3545 33.2624 22.8555 33.9316 21.8582H34V23.0695H35.5456V17.6896C35.5503 16.5583 35.2092 15.6621 34.5167 15.0236ZM33.2022 21.1281C32.9651 21.3693 32.6825 21.561 32.3707 21.6919C32.0588 21.8229 31.7241 21.8906 31.3859 21.891C30.9312 21.8986 30.4881 21.7475 30.1329 21.4637C29.967 21.3395 29.8326 21.1781 29.7404 20.9926C29.6482 20.807 29.6007 20.6025 29.6017 20.3953C29.6017 19.9168 29.8218 19.5196 30.2539 19.2045C30.6859 18.8893 31.2471 18.7259 31.8993 18.7259C32.7989 18.715 33.503 18.9201 34.0047 19.3261C34.0047 20.0186 33.734 20.6188 33.2022 21.1281ZM26.8003 11.4211C26.4376 11.0584 26.0053 10.7727 25.5295 10.5812C25.0536 10.3898 24.5439 10.2964 24.0311 10.3068H19.747V23.0722H21.3624V17.9015H24.0284C25.1221 17.9015 26.045 17.5351 26.7976 16.8126C26.8578 16.7517 26.9179 16.6902 26.9788 16.6294C27.6375 15.9105 27.9878 14.9618 27.9544 13.9874C27.9211 13.0129 27.5067 12.0905 26.8003 11.4183V11.4211ZM25.6669 15.6751C25.4633 15.8924 25.2157 16.0639 24.9405 16.178C24.6654 16.2921 24.3691 16.3462 24.0714 16.3368H21.3624V11.8791H24.0714C24.6496 11.877 25.205 12.1038 25.6164 12.51C26.0349 12.9268 26.2743 13.4904 26.2837 14.0809C26.2932 14.6714 26.0719 15.2424 25.6669 15.6723V15.6751ZM42.6638 14.34L40.166 20.6086H40.1352L37.5772 14.34H35.821L39.3614 22.5124L37.355 26.9092H39.0196L44.42 14.34H42.6638Z" fill="#1B9AAA"/>
</g>
<defs>
<clipPath id="clip0_473_3257">
<rect width="43.75" height="35" fill="white" transform="translate(0.669983 0.600098)"/>
</clipPath>
</defs>
</svg>
