<svg width="41" height="36" viewBox="0 0 41 36" fill="none" xmlns="http://www.w3.org/2000/svg">
<g clip-path="url(#clip0_473_3267)">
<path d="M23.1752 12.0708C23.1752 10.9497 22.2113 10.813 21.3021 10.813L18.6293 10.7925V15.5298H19.7504V13.814H20.9808C22.2386 13.814 21.972 14.5181 21.9926 15.5298H23.1273V14.6069C23.1273 13.978 23.0248 13.5747 22.3754 13.3491C22.8812 13.144 23.182 12.6177 23.1752 12.0708ZM21.1654 12.8433H19.7504V11.7974H21.1859C21.5345 11.7974 21.9174 11.8657 21.9174 12.3032C21.9174 12.7544 21.5551 12.8433 21.1654 12.8433ZM20.0238 18.9614H16.4213L14.9857 20.52L13.5844 18.9614H9.03845L9.03162 23.6987H13.5023L14.9584 22.1265L16.3529 23.6987H18.5541L18.5609 22.106C19.8529 22.106 21.931 22.4204 21.931 20.5132C21.931 19.3306 21.0902 18.9614 20.0238 18.9614ZM12.9281 22.7007H10.1527V21.7573H12.6342V20.7935H10.1527V19.939H13.0033L14.2269 21.3198L12.9281 22.7007ZM17.4261 23.2612L15.6967 21.3403L17.4261 19.4673V23.2612ZM20.0101 21.1421H18.5609V19.939H20.0306C20.4135 19.939 20.7279 20.0962 20.7279 20.5132C20.7279 20.9507 20.4135 21.1421 20.0101 21.1421ZM17.85 11.7974V10.7993H14.056V15.5366H17.85V14.5591H15.1908V13.6157H17.7748V12.6519H15.1908V11.7974H17.85ZM27.0238 20.2397C27.0238 19.1187 26.0599 18.9614 25.1713 18.9614H22.4779L22.4711 23.6987H23.6058L23.6127 21.9692H24.8158C25.5678 21.9692 25.8275 22.106 25.8275 22.9126L25.8207 23.6987H26.9554L26.9623 22.7554C26.9623 22.147 26.8392 21.7231 26.2103 21.4976C26.7367 21.2856 27.017 20.7593 27.0238 20.2397ZM25.0277 21.0054H23.6127V19.939H25.0482C25.3969 19.939 25.7797 20.0073 25.7797 20.4448C25.7797 20.9165 25.4105 21.0054 25.0277 21.0054ZM13.2152 15.5366V10.7993H11.3285L9.98181 14.0122L8.49841 10.7993H6.64587V15.2905L4.72498 10.7993H3.05017L1.0199 15.5366H2.24353L2.68103 14.4907H5.03943L5.47693 15.5366H7.78748V11.8315L9.4281 15.5366H10.4261L12.0668 11.8315V15.5366H13.2152ZM3.08435 13.5063L3.84998 11.6196L4.63611 13.5063H3.08435ZM35.7191 24.3687V24.061C34.9808 24.4438 35.4525 24.3687 25.0072 24.3687C25.0072 22.646 25.014 22.7349 25.0072 22.646C24.891 22.6392 24.7885 22.6392 24.3646 22.6392C24.3646 23.8628 24.3578 23.104 24.3578 24.3687H21.6508C21.6508 23.5415 21.6576 23.3228 21.6576 22.3726C20.974 22.7827 20.099 22.8101 19.3129 22.7964C19.3129 23.8013 19.306 23.3638 19.306 24.3687H15.9633C15.6146 23.979 15.7787 24.1567 14.9105 23.1792C14.6918 23.4185 14.0355 24.1294 13.8099 24.3687H8.20447V18.0591H13.8851C14.2269 18.4419 14.0765 18.271 14.9447 19.2349C15.1635 18.9956 15.7787 18.3188 16.0179 18.0591H19.9828C20.6527 18.0591 21.2133 18.189 21.6439 18.4419V18.0591C25.3558 18.0591 26.0394 17.9634 26.8187 18.4077V18.0591H32.1644V18.4146C32.9437 17.9429 33.5043 18.0591 36.601 18.0591V18.4009C37.3051 17.9976 37.7357 18.0454 40.3129 18.0591V6.06885C40.3129 4.25732 38.8431 2.7876 37.0316 2.7876H4.21912C2.40759 2.7876 0.937866 4.25732 0.937866 6.06885V13.5747C1.58044 12.0776 2.28455 10.4302 2.51697 9.89014H5.23083C5.52478 10.5806 5.34021 10.1431 5.84607 11.3325V9.89014H8.9906C9.18884 10.314 9.74939 11.5308 9.9408 11.9409C10.3373 11.0112 10.6312 10.3071 10.8021 9.89014H17.8431C17.8431 9.8833 18.6293 9.89014 18.6361 9.89014C21.6234 9.90381 22.3002 9.83545 23.0385 10.2524V9.89014H25.766V10.5259C26.2855 10.1089 26.9896 9.89014 27.8646 9.89014H29.7513C29.7513 9.92432 29.8812 9.91064 29.9086 9.91064H32.1234C32.4105 10.5806 32.3011 10.3208 32.725 11.3188V9.91064H35.6849C36.0199 10.4575 35.6166 9.7876 36.4506 11.1685V9.91064H39.1781V16.1997H36.3344C35.9652 15.5845 36.2386 16.0493 35.432 14.7026V16.1997H31.8226C31.3851 15.188 31.8158 16.1792 31.3715 15.1538H30.0726C29.7855 15.8374 29.9222 15.5093 29.6351 16.1997H27.8031C26.9623 16.1997 26.2787 15.9946 25.7728 15.5913V16.1997H21.2269C21.2064 15.2495 21.2201 14.5044 21.2201 14.5044C21.097 14.4839 20.9877 14.4907 20.5502 14.4907V16.2065H11.2875V15.4272C11.1166 15.8101 11.1029 15.8306 10.9388 16.2065H8.92224C8.6488 15.5981 8.724 15.769 8.57361 15.4272V16.2065H4.9574C4.67029 15.5161 4.80701 15.8442 4.5199 15.1606H3.2074C2.92029 15.8442 3.05701 15.5161 2.7699 16.2065H0.951538V30.1313C0.951538 31.9429 2.42126 33.4126 4.23279 33.4126H37.0521C38.8636 33.4126 40.3334 31.9429 40.3334 30.1313V23.9517C39.4652 24.519 38.098 24.3687 35.7191 24.3687ZM38.2006 19.9595H40.2582V18.9614H38.0092C37.1342 18.9614 36.3822 19.4126 36.3822 20.3765C36.3822 22.6323 39.3011 21.2515 39.3011 22.2495C39.3011 22.5981 39.0072 22.687 38.7269 22.687H36.5394L36.5326 23.6987H38.7201C39.2943 23.6987 39.9232 23.5757 40.2582 23.0903V21.3267C39.5404 20.3833 37.5717 21.2378 37.5717 20.4038C37.5717 20.0073 37.8861 19.9595 38.2006 19.9595ZM34.3041 22.6802H32.1029L32.0961 23.6919H34.2972C35.309 23.6919 36.0883 23.3091 36.0883 22.188C36.0883 19.9185 33.1556 21.4224 33.1556 20.3901C33.1556 20.0073 33.4906 19.9526 33.7845 19.9526H35.8627V18.9546H33.5931C32.7181 18.9546 31.9867 19.4058 31.9867 20.3696C31.9867 22.6255 34.9056 21.2241 34.9056 22.2427C34.8988 22.6118 34.5844 22.6802 34.3041 22.6802ZM31.4193 19.939V18.9614H27.6459L27.639 23.6987H31.4125L31.4193 22.7212L28.7806 22.7007V21.7573H31.3715V20.7935H28.7875V19.939H31.4193ZM27.5707 12.5493C27.5502 12.563 27.475 12.6997 27.475 13.0688C27.475 13.479 27.5365 13.5952 27.5502 13.6089C27.5638 13.6157 27.6254 13.6431 27.7826 13.6431L28.2816 12.4878C28.2064 12.4878 28.1381 12.481 28.0697 12.481C27.6869 12.481 27.5912 12.5288 27.5707 12.5493ZM27.8578 10.7925C26.2513 10.7925 25.5336 11.6128 25.5336 13.2056C25.5336 14.7231 26.2308 15.5298 27.7894 15.5298H29.1019L29.5394 14.4839H31.8842L32.3353 15.5298H34.639V11.9819L36.7719 15.5298H38.3851V10.813H37.2299V14.1011L35.2406 10.813H33.5111V15.2837L31.6039 10.813H29.9086L28.3021 14.5386H27.7963C26.8871 14.5386 26.6957 13.9849 26.6957 13.1782C26.6957 11.5513 27.7689 11.811 28.9584 11.8315V10.7925H27.8578ZM30.7357 11.6196L31.5013 13.5063H29.9428L30.7357 11.6196ZM23.8246 10.7993V15.5366H24.9799V10.7993H23.8246Z" fill="#1B9AAA"/>
</g>
<defs>
<clipPath id="clip0_473_3267">
<rect width="39.382" height="35" fill="white" transform="translate(0.947998 0.600098)"/>
</clipPath>
</defs>
</svg>
