<svg width="40" height="36" viewBox="0 0 40 36" fill="none" xmlns="http://www.w3.org/2000/svg">
<g clip-path="url(#clip0_473_3265)">
<path d="M33.5802 28.6479C33.5802 29.1128 33.2657 29.4478 32.8146 29.4478C32.3497 29.4478 32.049 29.0923 32.049 28.6479C32.049 28.2036 32.3497 27.8481 32.8146 27.8481C33.2657 27.8481 33.5802 28.2036 33.5802 28.6479ZM12.3341 27.8481C11.8488 27.8481 11.5685 28.2036 11.5685 28.6479C11.5685 29.0923 11.8488 29.4478 12.3341 29.4478C12.7784 29.4478 13.0792 29.1128 13.0792 28.6479C13.0724 28.2036 12.7784 27.8481 12.3341 27.8481ZM20.3663 27.8276C19.9972 27.8276 19.7716 28.0669 19.7169 28.4224H21.0226C20.9611 28.0327 20.7218 27.8276 20.3663 27.8276ZM27.7355 27.8481C27.2706 27.8481 26.9904 28.2036 26.9904 28.6479C26.9904 29.0923 27.2706 29.4478 27.7355 29.4478C28.2003 29.4478 28.5011 29.1128 28.5011 28.6479C28.5011 28.2036 28.2003 27.8481 27.7355 27.8481ZM34.9747 29.6323C34.9747 29.6528 34.9952 29.6665 34.9952 29.7075C34.9952 29.728 34.9747 29.7417 34.9747 29.7827C34.9542 29.8032 34.9542 29.8169 34.9406 29.8374C34.92 29.8579 34.9064 29.8716 34.8654 29.8716C34.8448 29.8921 34.8312 29.8921 34.7902 29.8921C34.7697 29.8921 34.756 29.8921 34.715 29.8716C34.6945 29.8716 34.6808 29.8511 34.6603 29.8374C34.6398 29.8169 34.6261 29.8032 34.6261 29.7827C34.6056 29.7485 34.6056 29.728 34.6056 29.7075C34.6056 29.6733 34.6056 29.6528 34.6261 29.6323C34.6261 29.5981 34.6466 29.5776 34.6603 29.5571C34.6808 29.5366 34.6945 29.5366 34.715 29.5229C34.7491 29.5024 34.7697 29.5024 34.7902 29.5024C34.8243 29.5024 34.8448 29.5024 34.8654 29.5229C34.8995 29.5435 34.92 29.5435 34.9406 29.5571C34.9611 29.5708 34.9542 29.5981 34.9747 29.6323ZM34.8243 29.728C34.8585 29.728 34.8585 29.7075 34.879 29.7075C34.8995 29.687 34.8995 29.6733 34.8995 29.6528C34.8995 29.6323 34.8995 29.6187 34.879 29.5981C34.8585 29.5981 34.8448 29.5776 34.8038 29.5776H34.6945V29.8169H34.7491V29.7212H34.7697L34.8448 29.8169H34.8995L34.8243 29.728ZM39.9445 6.13721V30.1997C39.9445 32.0112 38.4747 33.481 36.6632 33.481H3.85071C2.03918 33.481 0.569458 32.0112 0.569458 30.1997V6.13721C0.569458 4.32568 2.03918 2.85596 3.85071 2.85596H36.6632C38.4747 2.85596 39.9445 4.32568 39.9445 6.13721ZM4.94446 15.6802C4.94446 20.9097 9.18958 25.1479 14.4122 25.1479C16.2716 25.1479 18.0968 24.5874 19.6417 23.5688C14.6583 19.5151 14.6925 11.8657 19.6417 7.81201C18.0968 6.78662 16.2716 6.23291 14.4122 6.23291C9.18958 6.22607 4.94446 10.4712 4.94446 15.6802ZM20.257 23.1177C25.0763 19.3579 25.0558 12.0298 20.257 8.24951C15.4581 12.0298 15.4376 19.3647 20.257 23.1177ZM10.5294 28.3335C10.5294 27.7388 10.1398 27.3491 9.52454 27.3286C9.21008 27.3286 8.87512 27.4243 8.64954 27.7729C8.48547 27.4927 8.2052 27.3286 7.81555 27.3286C7.55579 27.3286 7.29602 27.4243 7.09094 27.6978V27.397H6.5304V29.9058H7.09094C7.09094 28.6138 6.92004 27.8413 7.70618 27.8413C8.40344 27.8413 8.26672 28.5386 8.26672 29.9058H8.80676C8.80676 28.6548 8.63586 27.8413 9.422 27.8413C10.1193 27.8413 9.98254 28.5249 9.98254 29.9058H10.5431V28.3335H10.5294ZM13.5988 27.397H13.0587V27.6978C12.8741 27.4722 12.6144 27.3286 12.2589 27.3286C11.5548 27.3286 11.0148 27.8892 11.0148 28.6479C11.0148 29.4136 11.5548 29.9673 12.2589 29.9673C12.6144 29.9673 12.8741 29.8374 13.0587 29.5981V29.9126H13.5988V27.397ZM16.3673 29.147C16.3673 28.1216 14.8019 28.5864 14.8019 28.1079C14.8019 27.7183 15.6154 27.7798 16.0665 28.0327L16.2921 27.5884C15.6495 27.1714 14.2277 27.1782 14.2277 28.1489C14.2277 29.1265 15.7931 28.7163 15.7931 29.1743C15.7931 29.605 14.8702 29.5708 14.3781 29.229L14.1388 29.6597C14.9044 30.1792 16.3673 30.0698 16.3673 29.147ZM18.7872 29.7827L18.6368 29.3179C18.3771 29.4614 17.8029 29.6187 17.8029 29.0376V27.9028H18.6984V27.397H17.8029V26.6313H17.2423V27.397H16.7228V27.896H17.2423V29.0376C17.2423 30.2407 18.4249 30.022 18.7872 29.7827ZM19.6964 28.8667H21.5763C21.5763 27.7593 21.0704 27.3218 20.3868 27.3218C19.6622 27.3218 19.1427 27.8618 19.1427 28.6411C19.1427 30.0425 20.6876 30.2749 21.4532 29.6118L21.1935 29.2017C20.6603 29.6392 19.8536 29.5981 19.6964 28.8667ZM23.7365 27.397C23.422 27.2603 22.9435 27.2739 22.6974 27.6978V27.397H22.1368V29.9058H22.6974V28.4907C22.6974 27.6978 23.3468 27.8003 23.5724 27.9165L23.7365 27.397ZM24.4611 28.6479C24.4611 27.8687 25.254 27.6157 25.8761 28.0737L26.1359 27.6294C25.3429 27.0073 23.9005 27.3491 23.9005 28.6548C23.9005 30.0083 25.4318 30.2817 26.1359 29.6802L25.8761 29.2358C25.2472 29.6802 24.4611 29.4136 24.4611 28.6479ZM29.0206 27.397H28.4601V27.6978C27.8927 26.9458 26.4161 27.3696 26.4161 28.6479C26.4161 29.9604 27.9474 30.3364 28.4601 29.5981V29.9126H29.0206V27.397ZM31.3243 27.397C31.1603 27.3149 30.5724 27.1987 30.2853 27.6978V27.397H29.7452V29.9058H30.2853V28.4907C30.2853 27.7388 30.9005 27.7866 31.1603 27.9165L31.3243 27.397ZM34.0792 26.3784H33.5392V27.6978C32.9786 26.9526 31.4952 27.3491 31.4952 28.6479C31.4952 29.9741 33.0333 30.3296 33.5392 29.5981V29.9126H34.0792V26.3784ZM34.5988 21.2446V21.5591H34.6534V21.2446H34.7833V21.1899H34.4689V21.2446H34.5988ZM35.0499 29.7075C35.0499 29.6733 35.0499 29.6323 35.0294 29.5981C35.0089 29.5776 34.9952 29.5435 34.9747 29.5229C34.9542 29.5024 34.92 29.4888 34.8995 29.4683C34.8654 29.4683 34.8243 29.4478 34.7902 29.4478C34.7697 29.4478 34.7355 29.4683 34.6945 29.4683C34.6603 29.4888 34.6398 29.5024 34.6193 29.5229C34.5851 29.5435 34.5646 29.5776 34.5646 29.5981C34.5441 29.6323 34.5441 29.6733 34.5441 29.7075C34.5441 29.728 34.5441 29.7622 34.5646 29.8032C34.5646 29.8237 34.5851 29.8579 34.6193 29.8784C34.6398 29.8989 34.6534 29.9126 34.6945 29.9331C34.7286 29.9536 34.7697 29.9536 34.7902 29.9536C34.8243 29.9536 34.8654 29.9536 34.8995 29.9331C34.92 29.9126 34.9542 29.8989 34.9747 29.8784C34.9952 29.8579 35.0089 29.8237 35.0294 29.8032C35.0499 29.7622 35.0499 29.728 35.0499 29.7075ZM35.2687 21.1831H35.173L35.0636 21.4224L34.9542 21.1831H34.8585V21.5522H34.9132V21.272L35.0226 21.5112H35.0978L35.1935 21.272V21.5522H35.2687V21.1831ZM35.5695 15.6802C35.5695 10.4712 31.3243 6.22607 26.1017 6.22607C24.2423 6.22607 22.4171 6.78662 20.8722 7.80518C25.8009 11.8589 25.8761 19.5288 20.8722 23.562C22.4171 24.5874 24.256 25.1411 26.1017 25.1411C31.3243 25.1479 35.5695 20.9097 35.5695 15.6802Z" fill="#1B9AAA"/>
</g>
<defs>
<clipPath id="clip0_473_3265">
<rect width="39.382" height="35" fill="white" transform="translate(0.565979 0.600098)"/>
</clipPath>
</defs>
</svg>
