<svg width="40" height="36" viewBox="0 0 40 36" fill="none" xmlns="http://www.w3.org/2000/svg">
<g clip-path="url(#clip0_473_3263)">
<path d="M32.3232 16.4116C32.3232 16.4116 32.8428 18.9546 32.959 19.4878H30.6758C30.9014 18.8794 31.7695 16.5142 31.7695 16.5142C31.7559 16.5347 31.9951 15.8921 32.1318 15.4956L32.3232 16.4116ZM39.5625 6.06885V30.1313C39.5625 31.9429 38.0928 33.4126 36.2812 33.4126H3.46875C1.65723 33.4126 0.1875 31.9429 0.1875 30.1313V6.06885C0.1875 4.25732 1.65723 2.7876 3.46875 2.7876H36.2812C38.0928 2.7876 39.5625 4.25732 39.5625 6.06885ZM10.6123 23.2407L14.9326 12.6313H12.0273L9.34082 19.8774L9.04688 18.4077L8.08984 13.5269C7.93262 12.8501 7.44727 12.6587 6.8457 12.6313H2.42285L2.375 12.8433C3.45508 13.1167 4.41895 13.5132 5.25977 14.0122L7.70703 23.2407H10.6123ZM17.0654 23.2544L18.7881 12.6313H16.04L14.3242 23.2544H17.0654ZM26.6289 19.7817C26.6426 18.5718 25.9043 17.6489 24.3252 16.8901C23.3613 16.4048 22.7734 16.0767 22.7734 15.5776C22.7871 15.1265 23.2725 14.6616 24.3525 14.6616C25.248 14.6411 25.9043 14.853 26.3965 15.0649L26.6426 15.1812L27.0186 12.8843C26.4785 12.6724 25.6172 12.4331 24.5576 12.4331C21.8438 12.4331 19.9365 13.8823 19.9229 15.9468C19.9023 17.4712 21.29 18.3188 22.3291 18.8315C23.3887 19.3511 23.751 19.6929 23.751 20.1509C23.7373 20.8618 22.8896 21.1899 22.1035 21.1899C21.0098 21.1899 20.4219 21.019 19.5264 20.6226L19.1641 20.4517L18.7812 22.8374C19.4238 23.1313 20.6133 23.3911 21.8438 23.4048C24.7285 23.4116 26.6084 21.9829 26.6289 19.7817ZM36.2812 23.2544L34.0664 12.6313H31.9404C31.2842 12.6313 30.7852 12.8228 30.5049 13.5132L26.4238 23.2544H29.3086C29.3086 23.2544 29.7803 21.9419 29.8828 21.6616H33.4102C33.4922 22.0376 33.7383 23.2544 33.7383 23.2544H36.2812Z" fill="#1B9AAA"/>
</g>
<defs>
<clipPath id="clip0_473_3263">
<rect width="39.382" height="35" fill="white" transform="translate(0.184021 0.600098)"/>
</clipPath>
</defs>
</svg>
