<svg width="41" height="36" viewBox="0 0 41 36" fill="none" xmlns="http://www.w3.org/2000/svg">
<g clip-path="url(#clip0_473_3261)">
<path d="M13.5408 18.2505C13.5408 19.0845 12.8777 19.7202 12.0369 19.7202C11.408 19.7202 10.9432 19.3647 10.9432 18.6948C10.9432 17.8608 11.5926 17.1909 12.4266 17.1909C13.0623 17.1909 13.5408 17.5806 13.5408 18.2505ZM6.30841 14.9351H5.98712C5.88458 14.9351 5.78204 15.0034 5.76837 15.1196L5.47443 16.9448L6.03497 16.9243C6.78693 16.9243 7.36798 16.8218 7.5047 15.9536C7.66193 15.0376 7.08087 14.9351 6.30841 14.9351ZM25.7225 14.9351H25.4149C25.2918 14.9351 25.2098 15.0034 25.1961 15.1196L24.909 16.9448L25.4559 16.9243C26.3445 16.9243 26.9598 16.7192 26.9598 15.6938C26.9529 14.9692 26.3035 14.9351 25.7225 14.9351ZM40.1805 6.06885V30.1313C40.1805 31.9429 38.7108 33.4126 36.8992 33.4126H4.08673C2.27521 33.4126 0.805481 31.9429 0.805481 30.1313V6.06885C0.805481 4.25732 2.27521 2.7876 4.08673 2.7876H36.8992C38.7108 2.7876 40.1805 4.25732 40.1805 6.06885ZM9.57599 15.3247C9.57599 13.8892 8.46857 13.4106 7.20392 13.4106H4.46954C4.29865 13.4106 4.12775 13.5474 4.11407 13.7319L2.99298 20.7114C2.97247 20.8481 3.07501 20.9849 3.21173 20.9849H4.51056C4.69513 20.9849 4.86603 20.7866 4.88654 20.5952L5.19415 18.7769C5.26251 18.2847 6.0965 18.4556 6.42462 18.4556C8.3797 18.4556 9.57599 17.2935 9.57599 15.3247ZM15.3318 15.9263H14.033C13.7733 15.9263 13.7596 16.3022 13.7459 16.4868C13.3494 15.9058 12.7752 15.8032 12.1258 15.8032C10.451 15.8032 9.17267 17.2729 9.17267 18.8931C9.17267 20.2261 10.0067 21.0942 11.3397 21.0942C11.9549 21.0942 12.7205 20.7593 13.1512 20.2808C13.117 20.3833 13.0828 20.6021 13.0828 20.7046C13.0828 20.8618 13.1512 20.978 13.3016 20.978H14.4774C14.6619 20.978 14.8192 20.7798 14.8533 20.5884L15.5506 16.1929C15.5711 16.063 15.4686 15.9263 15.3318 15.9263ZM18.1004 22.6187L22.4549 16.2886C22.4891 16.2544 22.4891 16.2202 22.4891 16.1724C22.4891 16.0562 22.3865 15.9331 22.2703 15.9331H20.9578C20.8416 15.9331 20.7186 16.0015 20.6502 16.104L18.8387 18.77L18.0867 16.2065C18.032 16.0562 17.8817 15.9331 17.7108 15.9331H16.4324C16.3162 15.9331 16.2137 16.0562 16.2137 16.1724C16.2137 16.2544 17.5467 20.0552 17.6629 20.4175C17.4783 20.6772 16.2615 22.3726 16.2615 22.5776C16.2615 22.7007 16.3641 22.7964 16.4803 22.7964H17.7928C17.9158 22.7896 18.032 22.7212 18.1004 22.6187ZM28.9901 15.3247C28.9901 13.8892 27.8826 13.4106 26.618 13.4106H23.9041C23.7195 13.4106 23.5486 13.5474 23.5281 13.7319L22.4207 20.7046C22.407 20.8413 22.5096 20.978 22.6395 20.978H24.0408C24.1776 20.978 24.2801 20.8755 24.3143 20.7593L24.6219 18.7769C24.6902 18.2847 25.5242 18.4556 25.8524 18.4556C27.7938 18.4556 28.9901 17.2935 28.9901 15.3247ZM34.7459 15.9263H33.4471C33.1873 15.9263 33.1736 16.3022 33.1531 16.4868C32.7772 15.9058 32.1961 15.8032 31.533 15.8032C29.8582 15.8032 28.5799 17.2729 28.5799 18.8931C28.5799 20.2261 29.4139 21.0942 30.7469 21.0942C31.3826 21.0942 32.1483 20.7593 32.5584 20.2808C32.5379 20.3833 32.4901 20.6021 32.4901 20.7046C32.4901 20.8618 32.5584 20.978 32.7088 20.978H33.8914C34.076 20.978 34.2332 20.7798 34.2674 20.5884L34.9647 16.1929C34.9852 16.063 34.8826 15.9263 34.7459 15.9263ZM37.993 13.6499C37.993 13.5132 37.8904 13.4106 37.7742 13.4106H36.5096C36.407 13.4106 36.3045 13.4927 36.2908 13.5952L35.1834 20.7046L35.1629 20.7388C35.1629 20.8618 35.2654 20.978 35.4022 20.978H36.5301C36.701 20.978 36.8719 20.7798 36.8856 20.5884L37.993 13.6704V13.6499ZM31.8406 17.1909C31.0067 17.1909 30.3572 17.854 30.3572 18.6948C30.3572 19.3579 30.8358 19.7202 31.4647 19.7202C32.285 19.7202 32.9481 19.0913 32.9481 18.2505C32.9549 17.5806 32.4764 17.1909 31.8406 17.1909Z" fill="#1B9AAA"/>
</g>
<defs>
<clipPath id="clip0_473_3261">
<rect width="39.382" height="35" fill="white" transform="translate(0.802002 0.600098)"/>
</clipPath>
</defs>
</svg>
