<svg width="40" height="36" viewBox="0 0 40 36" fill="none" xmlns="http://www.w3.org/2000/svg">
<g clip-path="url(#clip0_473_3259)">
<path d="M21.0817 15.5298C21.0817 16.7056 20.3639 17.3823 19.0992 17.3823H17.4381V13.6772H19.1061C20.3639 13.6772 21.0817 14.3472 21.0817 15.5298ZM24.3287 19.8091C24.3287 20.3765 24.8209 20.7456 25.5934 20.7456C26.5778 20.7456 27.316 20.1235 27.316 19.2485V18.7222L25.7096 18.8247C24.8004 18.8862 24.3287 19.2212 24.3287 19.8091ZM39.7985 6.00049V30.063C39.7985 31.8745 38.3287 33.3442 36.5172 33.3442H3.70471C1.89319 33.3442 0.423462 31.8745 0.423462 30.063V6.00049C0.423462 4.18896 1.89319 2.71924 3.70471 2.71924H36.5172C38.3287 2.71924 39.7985 4.18896 39.7985 6.00049ZM9.15979 14.0806C9.73401 14.1284 10.3082 13.7935 10.6705 13.3696C11.026 12.9321 11.2584 12.3442 11.1969 11.7495C10.691 11.77 10.0621 12.0845 9.69983 12.522C9.3717 12.8979 9.09143 13.5063 9.15979 14.0806ZM13.3024 19.1733C13.2887 19.1597 11.9625 18.6538 11.9489 17.1226C11.9352 15.8442 12.9948 15.229 13.0426 15.1948C12.441 14.3062 11.5114 14.2104 11.1901 14.1899C10.3561 14.1421 9.64514 14.6616 9.24866 14.6616C8.84534 14.6616 8.24377 14.2104 7.58752 14.2241C6.73303 14.2378 5.93323 14.7231 5.50256 15.4956C4.60706 17.0405 5.27014 19.3237 6.13831 20.5815C6.56213 21.2036 7.07483 21.8872 7.74475 21.8599C8.38049 21.8325 8.63342 21.4497 9.39905 21.4497C10.1715 21.4497 10.3903 21.8599 11.0602 21.853C11.7574 21.8394 12.1881 21.231 12.6188 20.6089C13.0905 19.8979 13.2887 19.2144 13.3024 19.1733ZM22.5582 15.5229C22.5582 13.7046 21.2936 12.4604 19.4889 12.4604H15.9889V21.7847H17.4381V18.5991H19.441C21.2731 18.5991 22.5582 17.3413 22.5582 15.5229ZM28.7106 17.1431C28.7106 15.7964 27.6305 14.9282 25.9762 14.9282C24.4381 14.9282 23.3033 15.8101 23.2623 17.0132H24.568C24.6774 16.439 25.2106 16.063 25.9352 16.063C26.8239 16.063 27.316 16.4731 27.316 17.2388V17.7515L25.5114 17.8608C23.8297 17.9634 22.9205 18.6538 22.9205 19.8501C22.9205 21.0601 23.8571 21.8599 25.2037 21.8599C26.1129 21.8599 26.9537 21.4019 27.3365 20.6704H27.3639V21.7915H28.7037V17.1431H28.7106ZM35.6969 15.0171H34.2272L32.525 20.5269H32.4977L30.7955 15.0171H29.2711L31.7252 21.8052L31.5953 22.2153C31.3766 22.9126 31.0143 23.186 30.3717 23.186C30.2555 23.186 30.0367 23.1724 29.9479 23.1655V24.2866C30.0299 24.314 30.3922 24.3208 30.5016 24.3208C31.9166 24.3208 32.5797 23.7808 33.1608 22.147L35.6969 15.0171Z" fill="#1B9AAA"/>
</g>
<defs>
<clipPath id="clip0_473_3259">
<rect width="39.382" height="35" fill="white" transform="translate(0.419983 0.600098)"/>
</clipPath>
</defs>
</svg>
