<svg width="37" height="36" viewBox="0 0 37 36" fill="none" xmlns="http://www.w3.org/2000/svg">
<path d="M23.5289 31.469V21.2296H26.9582L27.4712 17.249H23.5289V14.7105C23.5289 13.5581 23.8493 12.7717 25.5015 12.7717H27.6093V9.21005C26.589 9.10122 25.5634 9.04872 24.5372 9.05277C21.4989 9.05277 19.419 10.9078 19.419 14.3151V17.249H15.9823V21.2296H19.419V31.469H6.76887C6.37902 31.469 6.00514 31.3141 5.72948 31.0385C5.45382 30.7628 5.29895 30.3889 5.29895 29.9991V6.48041C5.29895 6.09057 5.45382 5.71669 5.72948 5.44103C6.00514 5.16536 6.37902 5.0105 6.76887 5.0105H30.2875C30.6774 5.0105 31.0513 5.16536 31.3269 5.44103C31.6026 5.71669 31.7575 6.09057 31.7575 6.48041V29.9991C31.7575 30.3889 31.6026 30.7628 31.3269 31.0385C31.0513 31.3141 30.6774 31.469 30.2875 31.469H23.5289Z" fill="#1B9AAA"/>
</svg>
