<svg width="36" height="36" viewBox="0 0 36 36" fill="none" xmlns="http://www.w3.org/2000/svg">
<path d="M19.6502 3.54028C21.3038 3.54469 22.1431 3.55351 22.8678 3.57409L23.153 3.58438C23.4822 3.59614 23.8071 3.61084 24.1996 3.62848C25.7635 3.70197 26.8307 3.94892 27.767 4.31199C28.7372 4.68535 29.5545 5.191 30.3717 6.0068C31.1195 6.74137 31.6979 7.63028 32.0665 8.61149C32.4296 9.54783 32.6766 10.615 32.7501 12.1805C32.7677 12.5714 32.7824 12.8963 32.7942 13.227L32.803 13.5122C32.825 14.2354 32.8338 15.0747 32.8368 16.7284L32.8383 17.8249V19.7505C32.8418 20.8227 32.8306 21.8948 32.8044 22.9667L32.7956 23.2519C32.7839 23.5826 32.7692 23.9074 32.7515 24.2984C32.678 25.8639 32.4281 26.9296 32.0665 27.8674C31.6979 28.8486 31.1195 29.7375 30.3717 30.4721C29.6372 31.2198 28.7483 31.7982 27.767 32.1669C26.8307 32.53 25.7635 32.7769 24.1996 32.8504L23.153 32.8945L22.8678 32.9033C22.1431 32.9239 21.3038 32.9342 19.6502 32.9371L18.5536 32.9386H16.6295C15.5568 32.9424 14.4842 32.9311 13.4118 32.9048L13.1267 32.896C12.7777 32.8828 12.4289 32.8676 12.0801 32.8504C10.5161 32.7769 9.44894 32.53 8.51114 32.1669C7.53045 31.798 6.64205 31.2197 5.90791 30.4721C5.15964 29.7377 4.58074 28.8487 4.21163 27.8674C3.84856 26.9311 3.60161 25.8639 3.52812 24.2984L3.48402 23.2519L3.47667 22.9667C3.44957 21.8949 3.43732 20.8227 3.43992 19.7505V16.7284C3.43585 15.6562 3.44663 14.5841 3.47226 13.5122L3.48255 13.227C3.49431 12.8963 3.50901 12.5714 3.52665 12.1805C3.60014 10.615 3.84709 9.5493 4.21016 8.61149C4.58013 7.62988 5.16005 6.74093 5.90938 6.0068C6.6431 5.25942 7.53098 4.68105 8.51114 4.31199C9.44894 3.94892 10.5146 3.70197 12.0801 3.62848C12.4711 3.61084 12.7974 3.59614 13.1267 3.58438L13.4118 3.57556C14.4837 3.54944 15.5559 3.53817 16.628 3.54175L19.6502 3.54028ZM18.1391 10.8899C16.1899 10.8899 14.3205 11.6642 12.9421 13.0425C11.5638 14.4208 10.7895 16.2902 10.7895 18.2394C10.7895 20.1887 11.5638 22.0581 12.9421 23.4364C14.3205 24.8147 16.1899 25.589 18.1391 25.589C20.0883 25.589 21.9577 24.8147 23.336 23.4364C24.7143 22.0581 25.4887 20.1887 25.4887 18.2394C25.4887 16.2902 24.7143 14.4208 23.336 13.0425C21.9577 11.6642 20.0883 10.8899 18.1391 10.8899ZM18.1391 13.8297C18.7182 13.8296 19.2916 13.9436 19.8267 14.1651C20.3617 14.3866 20.8479 14.7114 21.2575 15.1208C21.667 15.5302 21.9919 16.0163 22.2136 16.5512C22.4353 17.0862 22.5495 17.6596 22.5496 18.2387C22.5497 18.8178 22.4357 19.3913 22.2142 19.9263C21.9927 20.4614 21.6679 20.9475 21.2585 21.3571C20.8491 21.7666 20.363 22.0915 19.828 22.3132C19.2931 22.5349 18.7197 22.6491 18.1406 22.6492C16.971 22.6492 15.8494 22.1846 15.0224 21.3576C14.1954 20.5306 13.7308 19.409 13.7308 18.2394C13.7308 17.0699 14.1954 15.9483 15.0224 15.1213C15.8494 14.2943 16.971 13.8297 18.1406 13.8297M25.8576 8.68499C25.3703 8.68499 24.903 8.87857 24.5584 9.22315C24.2138 9.56773 24.0202 10.0351 24.0202 10.5224C24.0202 11.0097 24.2138 11.477 24.5584 11.8216C24.903 12.1662 25.3703 12.3598 25.8576 12.3598C26.3449 12.3598 26.8123 12.1662 27.1569 11.8216C27.5014 11.477 27.695 11.0097 27.695 10.5224C27.695 10.0351 27.5014 9.56773 27.1569 9.22315C26.8123 8.87857 26.3449 8.68499 25.8576 8.68499Z" fill="#1B9AAA"/>
</svg>
