<svg width="36" height="36" viewBox="0 0 36 36" fill="none" xmlns="http://www.w3.org/2000/svg">
<path d="M23.7972 12.7202V23.3844C23.7967 25.3689 23.1784 27.3039 22.028 28.9209C20.8776 30.5379 19.2523 31.7566 17.3777 32.4078C15.5031 33.0589 13.4723 33.1102 11.5673 32.5545C9.6622 31.9988 7.97743 30.8637 6.7469 29.3069C5.51637 27.75 4.80114 25.8486 4.70053 23.8667C4.59991 21.8848 5.1189 19.9208 6.18544 18.2473C7.25197 16.5738 8.81313 15.2739 10.6521 14.5282C12.4911 13.7824 14.5167 13.6278 16.4476 14.0857V18.7351C15.4404 18.2573 14.3053 18.1196 13.2132 18.3427C12.121 18.5658 11.1308 19.1375 10.3917 19.972C9.6525 20.8064 9.20436 21.8583 9.11467 22.9694C9.02498 24.0805 9.29859 25.1907 9.89434 26.1329C10.4901 27.075 11.3757 27.7982 12.418 28.1936C13.4602 28.5889 14.6027 28.6351 15.6734 28.3251C16.7442 28.0151 17.6853 27.3657 18.3551 26.4747C19.0249 25.5836 19.3872 24.4991 19.3874 23.3844V3.54053H23.7972C23.7972 5.48976 24.5715 7.35915 25.9498 8.73747C27.3281 10.1158 29.1975 10.8901 31.1467 10.8901V15.2999C28.4743 15.3034 25.8811 14.3932 23.7972 12.7202Z" fill="#1B9AAA"/>
</svg>
