<svg width="215" height="32" viewBox="0 0 215 32" fill="none" xmlns="http://www.w3.org/2000/svg">
<path d="M196.261 9.56958H203.811L205.83 -3.05176e-05H209.254L207.235 9.56958H214.961V12.7302H206.533L203.416 27.5236C203.328 27.8748 203.357 28.1528 203.504 28.3576C203.679 28.5625 203.899 28.6649 204.162 28.6649C204.367 28.6649 204.587 28.5917 204.821 28.4454L210.659 24.4947L212.415 27.0846L206.577 31.0354C205.64 31.6499 204.674 31.9572 203.679 31.9572C202.655 31.9572 201.777 31.6499 201.046 31.0354C200.314 30.4208 199.948 29.499 199.948 28.2698C199.948 28.065 199.963 27.8601 199.992 27.6553C200.021 27.4212 200.065 27.187 200.124 26.9529L203.109 12.7302H196.261V9.56958Z" fill="white"/>
<path d="M172.104 0.614517H191.067V4.03851H183.429L178.381 27.9186H186.019V31.3426H167.056V27.9186H174.694L179.742 4.03851H172.104V0.614517Z" fill="white"/>
<path d="M147.727 31.3427H142.196V9.56966H147.727V12.8181H148.518C149.015 11.5889 149.82 10.6378 150.932 9.96473C152.044 9.29164 153.346 8.95509 154.839 8.95509C155.892 8.95509 156.873 9.13068 157.78 9.48186C158.716 9.80378 159.536 10.3159 160.238 11.0183C160.941 11.7206 161.482 12.6132 161.862 13.696C162.272 14.7788 162.477 16.0665 162.477 17.559V31.3427H156.946V18.9637C156.946 17.4126 156.565 16.1982 155.805 15.3202C155.073 14.413 154.005 13.9594 152.6 13.9594C150.961 13.9594 149.732 14.5154 148.913 15.6275C148.123 16.7103 147.727 18.1735 147.727 20.0172V31.3427Z" fill="white"/>
<path d="M129.409 28.1821C128.824 29.5576 128.004 30.5379 126.951 31.1232C125.897 31.6793 124.668 31.9573 123.263 31.9573C121.946 31.9573 120.703 31.7085 119.532 31.211C118.391 30.7135 117.381 29.9819 116.503 29.0162C115.625 28.0504 114.923 26.8798 114.396 25.5044C113.899 24.1289 113.65 22.5633 113.65 20.8074V20.105C113.65 18.3784 113.899 16.8273 114.396 15.4519C114.894 14.0764 115.567 12.9059 116.415 11.9401C117.264 10.9744 118.244 10.2427 119.356 9.74525C120.498 9.21848 121.712 8.95509 123 8.95509C124.551 8.95509 125.795 9.21848 126.731 9.74525C127.697 10.272 128.458 11.0914 129.014 12.2035H129.804V9.56966H135.335V24.7581C135.335 25.6361 135.73 26.075 136.52 26.075H137.354V31.3427H133.579C132.584 31.3427 131.765 31.0501 131.121 30.4648C130.506 29.8795 130.199 29.1186 130.199 28.1821H129.409ZM124.492 26.6896C126.102 26.6896 127.39 26.1628 128.355 25.1093C129.321 24.0265 129.804 22.5633 129.804 20.7196V20.1928C129.804 18.3491 129.321 16.9005 128.355 15.847C127.39 14.7642 126.102 14.2228 124.492 14.2228C122.883 14.2228 121.595 14.7642 120.629 15.847C119.664 16.9005 119.181 18.3491 119.181 20.1928V20.7196C119.181 22.5633 119.664 24.0265 120.629 25.1093C121.595 26.1628 122.883 26.6896 124.492 26.6896Z" fill="white"/>
<path d="M88.3077 26.075H95.9459V5.88219H88.5711V0.614517H101.477V26.075H108.588V31.3426H88.3077V26.075Z" fill="white"/>
<path d="M67.0919 19.7537V31.3426H61.2975V0.614517H73.3253C74.9057 0.614517 76.2811 0.877901 77.4517 1.40467C78.6223 1.90217 79.588 2.57526 80.3489 3.42394C81.1391 4.24336 81.7244 5.19447 82.1048 6.27727C82.5145 7.33081 82.7194 8.41361 82.7194 9.52567V10.5792C82.7194 11.7205 82.5145 12.8472 82.1048 13.9593C81.7244 15.0421 81.1391 16.0225 80.3489 16.9004C79.588 17.7491 78.6223 18.4368 77.4517 18.9636C76.2811 19.4904 74.9057 19.7537 73.3253 19.7537H67.0919ZM67.0919 14.2227H72.7547C74.0423 14.2227 75.052 13.8715 75.7836 13.1691C76.5445 12.4668 76.9249 11.5596 76.9249 10.4475V9.92075C76.9249 8.80868 76.5445 7.90147 75.7836 7.19911C75.052 6.49676 74.0423 6.14558 72.7547 6.14558H67.0919V14.2227Z" fill="white"/>
<g clip-path="url(#clip0_522_811)">
<path d="M0.00378418 4.74598H10.082C11.7918 4.74598 13.3661 5.66686 14.1845 7.14643L16.3615 11.0802L10.0391 20.8694L0.00378418 4.74598Z" fill="white"/>
<path d="M24.9083 0.0810471H14.3942L21.0528 11.119L7.3833 32.0387H17.334C19.3197 32.0387 21.1699 31.0447 22.2456 29.3995L33.1248 12.754L34.3038 11.023L28.896 2.28956C28.0498 0.917378 26.5382 0.0810471 24.9083 0.0810471Z" fill="white"/>
<path d="M49.5324 13.4989C48.7221 11.9908 47.1328 11.0482 45.4021 11.0482H38.8688L32.616 20.8111L49.5927 20.8374C51.3535 20.8374 52.4815 18.9899 51.6584 17.4567L49.5336 13.5001L49.5324 13.4989Z" fill="white"/>
</g>
<defs>
<clipPath id="clip0_522_811">
<rect width="51.9498" height="31.919" fill="white" transform="translate(0 0.0810242)"/>
</clipPath>
</defs>
</svg>
