<svg width="38" height="39" viewBox="0 0 38 39" fill="none" xmlns="http://www.w3.org/2000/svg">
<path d="M37.8747 18.4787C38.0267 35.2759 14.0772 44.3959 3.81723 29.5718C-3.02336 20.45 0.397235 7.90406 9.51961 3.34584C16.3626 -0.0753474 25.4855 2.20465 32.6319 6.56278C35.916 9.44662 37.9276 13.575 37.8771 18.4793" fill="#CE9057"/>
<path d="M10.4719 27.1362C9.68106 23.8718 6.64759 21.8993 5.95587 18.5714C5.34669 15.6448 5.42269 13.2437 6.27828 10.3574C7.20869 7.22778 9.2589 4.57075 11.7942 2.44987C11.0019 2.68617 10.2307 2.98825 9.48868 3.35297C0.36453 7.91475 -3.05725 20.4601 3.78572 29.5789C8.16284 35.8994 15.0254 37.8558 21.4486 36.7336C16.4486 35.2071 11.8174 32.6878 10.4719 27.1386" fill="#B57C4D"/>
<path d="M5.73383 10.7778C5.45952 11.5521 7.1998 13.4188 7.74367 13.6142C8.28933 13.8071 8.21096 12.0769 8.29052 11.1234C8.3683 10.1413 8.50308 9.15035 7.95743 8.955C7.41355 8.76263 6.01171 10.0036 5.73383 10.7778Z" fill="#8A5F3D"/>
<path d="M12.3631 34.9434C12.6896 35.14 13.6889 34.513 13.8237 34.2808C13.9602 34.0493 13.1712 33.9258 12.746 33.804C12.309 33.677 11.872 33.5256 11.7361 33.7577C11.6001 33.9887 12.0383 34.7451 12.3631 34.9434ZM25.3561 23.5316C25.6809 23.7269 26.6802 23.1005 26.8167 22.8683C26.9527 22.6356 26.1642 22.5121 25.7379 22.3904C25.3021 22.2633 24.8633 22.1131 24.7273 22.3458C24.5913 22.5756 25.0301 23.3333 25.3561 23.5316ZM12.1742 15.8858C12.499 16.083 13.4989 15.4554 13.6349 15.2226C13.7708 14.9917 12.9823 14.8676 12.556 14.7458C12.119 14.6194 11.682 14.4674 11.5461 14.6995C11.4101 14.9317 11.8483 15.6875 12.1742 15.8858Z" fill="#724424"/>
<path d="M24.3675 31.2123C24.2375 32.0216 26.2895 33.5392 26.8624 33.6312C27.4336 33.7209 27.0429 32.0358 26.9426 31.0829C26.8422 30.1014 26.7918 29.1045 26.2188 29.0119C25.6494 28.9216 24.4981 30.3983 24.3675 31.2123Z" fill="#8A5F3D"/>
<path d="M5.22265 20.4732C5.09322 21.2842 7.1464 22.8007 7.71878 22.8927C8.28937 22.9823 7.89809 21.2973 7.79775 20.3455C7.69622 19.364 7.64753 18.3659 7.07515 18.2733C6.50515 18.1831 5.35328 19.6609 5.22265 20.4732ZM17.1327 8.5275C16.8964 7.60006 16.3127 6.99562 15.5503 6.61503C14.1521 6.19881 12.5424 6.21603 11.4172 6.92259C11.4196 6.92022 11.4208 6.93506 11.4238 6.93209C11.2861 7.0194 11.1558 7.1179 11.0343 7.22659C9.54456 8.54056 9.52378 11.0759 11.2664 12.4522C11.4333 12.5947 11.6072 12.7134 11.7848 12.8167L11.8002 12.8274C11.9613 12.9193 12.126 12.9967 12.2942 13.0596L12.3868 13.0917C12.5305 13.1392 12.6742 13.1789 12.8173 13.2051C12.8593 13.2134 12.9004 13.2205 12.9408 13.2264C13.0782 13.247 13.2155 13.2585 13.3529 13.2609C13.3962 13.2621 13.4372 13.2656 13.4805 13.2644C13.6246 13.2621 13.7673 13.2502 13.9086 13.2288C13.9419 13.2235 13.9757 13.2235 14.0078 13.2169C14.18 13.1876 14.3494 13.1463 14.516 13.0928C14.5534 13.081 14.5873 12.9224 14.6229 12.9094C14.7327 12.8702 14.8426 12.6398 14.9477 12.6398H14.9358C16.4968 11.8299 17.6291 10.3432 17.1327 8.5275ZM11.7349 26.4445C11.5669 25.8122 11.1524 25.3983 10.6109 25.1394C9.6164 24.855 8.47165 24.8681 7.67247 25.349C7.67247 25.3478 7.67484 25.3579 7.67662 25.3567C7.58043 25.4137 7.48662 25.4838 7.39934 25.558C6.34187 26.4546 6.32703 28.1854 7.56618 29.1265C7.68375 29.2244 7.80784 29.3046 7.93312 29.3764L7.945 29.3812C8.06078 29.4459 8.17597 29.4987 8.2959 29.5415L8.36181 29.5641C8.46215 29.5961 8.56665 29.6222 8.66522 29.6407L8.75487 29.6561C8.85304 29.6688 8.95081 29.6769 9.04818 29.6804C9.07847 29.6804 9.10756 29.6828 9.13784 29.6816C9.23997 29.6796 9.34169 29.6711 9.44303 29.6561C9.46678 29.6537 9.49053 29.6537 9.51309 29.6478C9.6358 29.628 9.75633 29.5999 9.87468 29.5635C9.9014 29.5552 9.92456 29.4477 9.95009 29.4376C10.0291 29.4115 10.1057 29.2541 10.1811 29.2541H10.1733C11.2801 28.7019 12.087 27.686 11.7349 26.4463" fill="#724424"/>
<path d="M14.0642 13.04C14.2476 13.366 14.538 13.5352 14.8764 13.5987C15.4696 13.6118 16.1031 13.4378 16.4742 13.0542C16.4742 13.0554 16.4712 13.0489 16.47 13.0519C16.5159 13.0048 16.5578 12.9539 16.5953 12.8999C17.0513 12.2491 16.8055 11.2872 15.9826 10.947C15.9037 10.9112 15.8218 10.8824 15.7379 10.8609C15.6526 10.8391 15.5653 10.826 15.4773 10.8217C15.3999 10.8163 15.3221 10.8185 15.2451 10.8283C15.1723 10.8357 15.1004 10.8498 15.0302 10.8704C14.9734 10.8853 14.9179 10.9044 14.8639 10.9274C14.8533 10.9328 14.839 10.9369 14.8265 10.9417C14.7612 10.9713 14.6978 11.0048 14.6365 11.042C14.6258 11.0497 14.627 11.1133 14.6152 11.121C14.5742 11.1477 14.5558 11.2463 14.5148 11.257L14.519 11.2558C13.9852 11.7231 13.6859 12.4047 14.0642 13.043M30.8809 10.4103C30.7135 9.77912 30.2991 9.36468 29.757 9.10521C28.7618 8.8214 27.6177 8.83328 26.8185 9.3154C26.8197 9.31421 26.8209 9.3249 26.8221 9.32193C26.7251 9.3821 26.6327 9.44917 26.5454 9.52262C25.4879 10.4204 25.4725 12.1506 26.7116 13.0911C26.8296 13.1878 26.9567 13.2729 27.091 13.3452C27.2058 13.4097 27.3222 13.4631 27.4402 13.5055C27.4633 13.5132 27.4859 13.5186 27.5067 13.5269C27.636 13.5665 27.7679 13.5973 27.9015 13.6189C27.9989 13.632 28.0966 13.6401 28.1948 13.6432L28.2851 13.6456C28.386 13.6432 28.4893 13.6343 28.5891 13.6201C28.6128 13.6165 28.6366 13.6165 28.6579 13.6124C28.7814 13.5918 28.9024 13.5631 29.0207 13.5263C29.0474 13.5197 29.0706 13.4099 29.0961 13.4022C29.1751 13.3761 29.2517 13.2187 29.3277 13.2187H29.3194C30.4273 12.6659 31.233 11.6518 30.8809 10.4103ZM36.1808 20.5996C35.8928 19.5131 35.1809 18.8006 34.2505 18.3582C32.544 17.8696 30.5763 17.8903 29.2054 18.7186C29.2072 18.7145 29.2101 18.7329 29.206 18.7305C29.0381 18.8316 28.8788 18.9464 28.7298 19.0737C26.9129 20.6162 26.8874 23.5886 29.0154 25.2012C29.2172 25.3686 29.4298 25.5087 29.6465 25.6293C29.6531 25.6317 29.659 25.637 29.6661 25.6394C29.8627 25.751 30.0633 25.8407 30.27 25.9143L30.3834 25.9517C30.5568 26.0069 30.7343 26.0526 30.9059 26.0853C30.9593 26.0942 31.0086 26.1031 31.0597 26.1096C31.2271 26.1334 31.3947 26.147 31.5626 26.1506C31.6136 26.1506 31.6647 26.1547 31.7199 26.1547C31.8941 26.1508 32.0676 26.1367 32.2406 26.1126C32.2828 26.1072 32.322 26.1049 32.3618 26.1001C32.5717 26.0648 32.7789 26.0154 32.9822 25.9523C33.0273 25.9398 33.0695 25.754 33.1123 25.7379C33.247 25.6922 33.3788 25.4244 33.5083 25.4244H33.4952C35.3976 24.4715 36.7816 22.7288 36.1754 20.5996" fill="#724424"/>
</svg>
