<svg width="50" height="50" viewBox="0 0 50 50" fill="none" xmlns="http://www.w3.org/2000/svg">
<rect width="49.3736" height="49.3736" rx="11.4002" fill="#1A1A1A"/>
<g clip-path="url(#clip0_1486_1288)">
<path d="M4.19763 15.6582H12.2058C13.5645 15.6582 14.8153 16.4013 15.4657 17.5954L17.1955 20.77L12.1717 28.67L4.19763 15.6582Z" fill="#F6F6F6"/>
<path d="M23.987 11.8934H15.6324L20.9233 20.8013L10.0615 37.6839H17.9684C19.5463 37.6839 21.0164 36.8817 21.8712 35.554L30.5159 22.1208L31.4526 20.7239L27.1556 13.6758C26.4832 12.5684 25.2821 11.8934 23.987 11.8934Z" fill="#F6F6F6"/>
<path d="M43.5533 22.7219C42.9095 21.5048 41.6466 20.7441 40.2714 20.7441H35.08L30.1115 28.623L43.6012 28.6442C45.0004 28.6442 45.8966 27.1533 45.2426 25.9159L43.5542 22.7228L43.5533 22.7219Z" fill="#F6F6F6"/>
</g>
<defs>
<clipPath id="clip0_1486_1288">
<rect width="41.2633" height="25.7896" fill="white" transform="translate(4.19763 11.8934)"/>
</clipPath>
</defs>
</svg>
